<svg width="40" height="40" viewBox="0 0 40 40" fill="none" xmlns="http://www.w3.org/2000/svg">
<rect x="0.12793" y="0.128222" width="39.8719" height="39.8718" rx="19.9359" fill="#D6D7D9"/>
<path d="M19.9707 0C8.94104 0 0 8.94102 0 19.9706C0 24.7768 1.69872 29.1864 4.52744 32.6323C4.96386 29.1379 8.45399 26.1826 13.348 24.7829C15.1359 26.4488 17.4454 27.4596 19.9706 27.4596C22.4363 27.4596 24.7006 26.4997 26.4703 24.9037C31.4066 26.4256 34.8217 29.5537 34.934 33.1896C38.0474 29.6675 39.9412 25.0415 39.9412 19.9706C39.9412 8.94102 31.0002 0 19.9707 0ZM19.9707 25.0946C18.6958 25.0946 17.4945 24.7443 16.4279 24.1377C13.8573 22.675 12.0875 19.6818 12.0875 16.226C12.0875 11.3359 15.6237 7.3573 19.9707 7.3573C24.318 7.3573 27.8539 11.3359 27.8539 16.226C27.8539 19.7349 26.0286 22.765 23.3941 24.2023C22.3563 24.7682 21.1982 25.0946 19.9707 25.0946Z" fill="#6E7377"/>
</svg>
